<svg width="139" height="91" viewBox="0 0 139 91" fill="none" xmlns="http://www.w3.org/2000/svg">
<g filter="url(#filter0_d)">
<rect x="4" y="4" width="127" height="79" rx="12" fill="#F4BF00"/>
<rect x="2" y="2" width="131" height="83" rx="14" stroke="black" stroke-width="4"/>
</g>
<rect x="16.5" y="24.5" width="101" height="38" rx="2.5" fill="white"/>
<path d="M41.976 41.192C41.976 41.7573 41.8427 42.2907 41.576 42.792C41.3093 43.2933 40.8827 43.704 40.296 44.024C39.7093 44.3333 38.9573 44.488 38.04 44.488H36.024V49H34.2V37.88H38.04C38.8933 37.88 39.6133 38.0293 40.2 38.328C40.7973 38.616 41.24 39.0107 41.528 39.512C41.8267 40.0133 41.976 40.5733 41.976 41.192ZM38.04 43C38.7333 43 39.2507 42.8453 39.592 42.536C39.9333 42.216 40.104 41.768 40.104 41.192C40.104 39.976 39.416 39.368 38.04 39.368H36.024V43H38.04ZM43.1076 44.552C43.1076 43.6667 43.289 42.8827 43.6516 42.2C44.025 41.5173 44.5263 40.9893 45.1556 40.616C45.7956 40.232 46.4996 40.04 47.2676 40.04C47.961 40.04 48.5636 40.1787 49.0756 40.456C49.5983 40.7227 50.0143 41.0587 50.3236 41.464V40.184H52.1636V49H50.3236V47.688C50.0143 48.104 49.593 48.4507 49.0596 48.728C48.5263 49.0053 47.9183 49.144 47.2356 49.144C46.4783 49.144 45.785 48.952 45.1556 48.568C44.5263 48.1733 44.025 47.6293 43.6516 46.936C43.289 46.232 43.1076 45.4373 43.1076 44.552ZM50.3236 44.584C50.3236 43.976 50.1956 43.448 49.9396 43C49.6943 42.552 49.369 42.2107 48.9636 41.976C48.5583 41.7413 48.121 41.624 47.6516 41.624C47.1823 41.624 46.745 41.7413 46.3396 41.976C45.9343 42.2 45.6036 42.536 45.3476 42.984C45.1023 43.4213 44.9796 43.944 44.9796 44.552C44.9796 45.16 45.1023 45.6933 45.3476 46.152C45.6036 46.6107 45.9343 46.9627 46.3396 47.208C46.7556 47.4427 47.193 47.56 47.6516 47.56C48.121 47.56 48.5583 47.4427 48.9636 47.208C49.369 46.9733 49.6943 46.632 49.9396 46.184C50.1956 45.7253 50.3236 45.192 50.3236 44.584ZM56.3834 41.48C56.6927 41.0747 57.114 40.7333 57.6474 40.456C58.1807 40.1787 58.7834 40.04 59.4554 40.04C60.2234 40.04 60.922 40.232 61.5514 40.616C62.1914 40.9893 62.6927 41.5173 63.0554 42.2C63.418 42.8827 63.5994 43.6667 63.5994 44.552C63.5994 45.4373 63.418 46.232 63.0554 46.936C62.6927 47.6293 62.1914 48.1733 61.5514 48.568C60.922 48.952 60.2234 49.144 59.4554 49.144C58.7834 49.144 58.186 49.0107 57.6634 48.744C57.1407 48.4667 56.714 48.1253 56.3834 47.72V53.192H54.5594V40.184H56.3834V41.48ZM61.7434 44.552C61.7434 43.944 61.6154 43.4213 61.3594 42.984C61.114 42.536 60.7834 42.2 60.3674 41.976C59.962 41.7413 59.5247 41.624 59.0554 41.624C58.5967 41.624 58.1594 41.7413 57.7434 41.976C57.338 42.2107 57.0074 42.552 56.7514 43C56.506 43.448 56.3834 43.976 56.3834 44.584C56.3834 45.192 56.506 45.7253 56.7514 46.184C57.0074 46.632 57.338 46.9733 57.7434 47.208C58.1594 47.4427 58.5967 47.56 59.0554 47.56C59.5247 47.56 59.962 47.4427 60.3674 47.208C60.7834 46.9627 61.114 46.6107 61.3594 46.152C61.6154 45.6933 61.7434 45.16 61.7434 44.552Z" fill="black"/>
<path d="M74.2831 37.88V49H72.4591V44.136H67.2271V49H65.4031V37.88H67.2271V42.648H72.4591V37.88H74.2831ZM84.7644 44.376C84.7644 44.7067 84.743 45.0053 84.7004 45.272H77.9644C78.0177 45.976 78.279 46.5413 78.7484 46.968C79.2177 47.3947 79.7937 47.608 80.4764 47.608C81.4577 47.608 82.151 47.1973 82.5564 46.376H84.5244C84.2577 47.1867 83.7724 47.8533 83.0684 48.376C82.375 48.888 81.511 49.144 80.4764 49.144C79.6337 49.144 78.8764 48.9573 78.2044 48.584C77.543 48.2 77.0204 47.6667 76.6364 46.984C76.263 46.2907 76.0764 45.4907 76.0764 44.584C76.0764 43.6773 76.2577 42.8827 76.6204 42.2C76.9937 41.5067 77.511 40.9733 78.1724 40.6C78.8444 40.2267 79.6124 40.04 80.4764 40.04C81.3084 40.04 82.0497 40.2213 82.7004 40.584C83.351 40.9467 83.8577 41.4587 84.2204 42.12C84.583 42.7707 84.7644 43.5227 84.7644 44.376ZM82.8604 43.8C82.8497 43.128 82.6097 42.5893 82.1404 42.184C81.671 41.7787 81.0897 41.576 80.3964 41.576C79.767 41.576 79.2284 41.7787 78.7804 42.184C78.3324 42.5787 78.0657 43.1173 77.9804 43.8H82.8604ZM88.3834 41.464C88.65 41.016 89.002 40.6693 89.4394 40.424C89.8874 40.168 90.4154 40.04 91.0234 40.04V41.928H90.5594C89.8447 41.928 89.3007 42.1093 88.9274 42.472C88.5647 42.8347 88.3834 43.464 88.3834 44.36V49H86.5594V40.184H88.3834V41.464ZM96.524 49.144C95.692 49.144 94.94 48.9573 94.268 48.584C93.596 48.2 93.068 47.6667 92.684 46.984C92.3 46.2907 92.108 45.4907 92.108 44.584C92.108 43.688 92.3053 42.8933 92.7 42.2C93.0947 41.5067 93.6333 40.9733 94.316 40.6C94.9987 40.2267 95.7613 40.04 96.604 40.04C97.4467 40.04 98.2093 40.2267 98.892 40.6C99.5747 40.9733 100.113 41.5067 100.508 42.2C100.903 42.8933 101.1 43.688 101.1 44.584C101.1 45.48 100.897 46.2747 100.492 46.968C100.087 47.6613 99.532 48.2 98.828 48.584C98.1347 48.9573 97.3667 49.144 96.524 49.144ZM96.524 47.56C96.9933 47.56 97.4307 47.448 97.836 47.224C98.252 47 98.588 46.664 98.844 46.216C99.1 45.768 99.228 45.224 99.228 44.584C99.228 43.944 99.1053 43.4053 98.86 42.968C98.6147 42.52 98.2893 42.184 97.884 41.96C97.4787 41.736 97.0413 41.624 96.572 41.624C96.1027 41.624 95.6653 41.736 95.26 41.96C94.8653 42.184 94.5507 42.52 94.316 42.968C94.0813 43.4053 93.964 43.944 93.964 44.584C93.964 45.5333 94.204 46.2693 94.684 46.792C95.1747 47.304 95.788 47.56 96.524 47.56Z" fill="#FA8383"/>
<rect x="16.5" y="24.5" width="101" height="38" rx="2.5" stroke="black" stroke-width="3"/>
<defs>
<filter id="filter0_d" x="0" y="0" width="139" height="91" filterUnits="userSpaceOnUse" color-interpolation-filters="sRGB">
<feFlood flood-opacity="0" result="BackgroundImageFix"/>
<feColorMatrix in="SourceAlpha" type="matrix" values="0 0 0 0 0 0 0 0 0 0 0 0 0 0 0 0 0 0 127 0"/>
<feOffset dx="4" dy="4"/>
<feColorMatrix type="matrix" values="0 0 0 0 0 0 0 0 0 0 0 0 0 0 0 0 0 0 1 0"/>
<feBlend mode="normal" in2="BackgroundImageFix" result="effect1_dropShadow"/>
<feBlend mode="normal" in="SourceGraphic" in2="effect1_dropShadow" result="shape"/>
</filter>
</defs>
</svg>
